<?xml version="1.0" encoding="UTF-8" standalone="no"?>
<!DOCTYPE svg PUBLIC "-//W3C//DTD SVG 1.1//EN" "http://www.w3.org/Graphics/SVG/1.1/DTD/svg11.dtd">
<svg width="100%" height="100%" viewBox="0 0 256 256" version="1.1" xmlns="http://www.w3.org/2000/svg" xmlns:xlink="http://www.w3.org/1999/xlink" xml:space="preserve" xmlns:serif="http://www.serif.com/" style="fill-rule:evenodd;clip-rule:evenodd;stroke-linejoin:round;stroke-miterlimit:2;">
    <rect id="Artboard1" x="0" y="0" width="256" height="256" style="fill:none;"/>
    <g transform="matrix(2.0606,0,0,2.0606,-135.757,-133.159)">
        <g id="Artboard11" serif:id="Artboard1">
            <g>
                <path d="M152.472,112.093L156.46,112.065L156.286,171.564C156.286,173.724 154.532,175.478 152.371,175.478L81.914,175.478C79.754,175.478 78,173.724 78,171.564L78,101.107C78,98.947 79.754,97.193 81.914,97.193L143.189,97.243L143.111,100.938L85.285,100.938C83.331,100.938 81.745,102.524 81.745,104.477L81.745,168.194C81.745,170.147 83.331,171.733 85.285,171.733L149.001,171.733C150.955,171.733 152.541,170.147 152.541,168.194L152.472,112.093Z" style="fill:white;"/>
                <g transform="matrix(-0.655227,0.655227,-0.707107,-0.707107,302.726,53.2519)">
                    <path d="M122.271,72.726L143.389,92.294L140.299,95.006L114.062,70.695L140.045,46.618L143.203,49.267L122.271,68.663L185.216,68.663L185.216,72.726L122.271,72.726Z" style="fill:white;"/>
                </g>
            </g>
        </g>
    </g>
</svg>
