<?xml version="1.0" encoding="UTF-8" standalone="no"?>
<!DOCTYPE svg PUBLIC "-//W3C//DTD SVG 1.1//EN" "http://www.w3.org/Graphics/SVG/1.1/DTD/svg11.dtd">
<svg width="100%" height="100%" viewBox="0 0 256 256" version="1.1" xmlns="http://www.w3.org/2000/svg" xmlns:xlink="http://www.w3.org/1999/xlink" xml:space="preserve" xmlns:serif="http://www.serif.com/" style="fill-rule:evenodd;clip-rule:evenodd;stroke-linejoin:round;stroke-miterlimit:2;">
    <g transform="matrix(1,0,0,1,-320,0)">
        <g transform="matrix(1,0,0,1,320,0)">
            <rect id="HamburgerClose" x="0" y="0" width="256" height="256" style="fill:none;"/>
            <g id="HamburgerClose1" serif:id="HamburgerClose">
                <g transform="matrix(1,0,0,0.842732,-320.151,29.0581)">
                    <path d="M548.106,43.361C548.106,42.313 547.389,41.463 546.506,41.463L349.796,41.463C348.913,41.463 348.196,42.313 348.196,43.361L348.196,77.536C348.196,78.584 348.913,79.434 349.796,79.434L546.506,79.434C547.389,79.434 548.106,78.584 548.106,77.536L548.106,43.361Z" style="fill:rgb(29,78,216);"/>
                </g>
                <g transform="matrix(1,0,0,0.842732,-320.151,77.0581)">
                    <path d="M548.106,43.361C548.106,42.313 547.389,41.463 546.506,41.463L349.796,41.463C348.913,41.463 348.196,42.313 348.196,43.361L348.196,77.536C348.196,78.584 348.913,79.434 349.796,79.434L546.506,79.434C547.389,79.434 548.106,78.584 548.106,77.536L548.106,43.361Z" style="fill:rgb(29,78,216);"/>
                </g>
                <g transform="matrix(1,0,0,0.842732,-320.151,125.058)">
                    <path d="M548.106,43.361C548.106,42.313 547.389,41.463 546.506,41.463L349.796,41.463C348.913,41.463 348.196,42.313 348.196,43.361L348.196,77.536C348.196,78.584 348.913,79.434 349.796,79.434L546.506,79.434C547.389,79.434 548.106,78.584 548.106,77.536L548.106,43.361Z" style="fill:rgb(29,78,216);"/>
                </g>
            </g>
        </g>
    </g>
</svg>
