<?xml version="1.0" encoding="UTF-8" standalone="no"?><!DOCTYPE svg PUBLIC "-//W3C//DTD SVG 1.1//EN" "http://www.w3.org/Graphics/SVG/1.1/DTD/svg11.dtd"><svg width="100%" height="100%" viewBox="0 0 2134 2134" version="1.1" xmlns="http://www.w3.org/2000/svg" xmlns:xlink="http://www.w3.org/1999/xlink" xml:space="preserve" xmlns:serif="http://www.serif.com/" style="fill-rule:evenodd;clip-rule:evenodd;stroke-linejoin:round;stroke-miterlimit:2;"><rect id="pwa_icon" x="0" y="-0" width="2133.33" height="2133.33" style="fill:none;"/><clipPath id="_clip1"><rect x="0" y="-0" width="2133.33" height="2133.33"/></clipPath><g clip-path="url(#_clip1)"><path d="M2133.33,533.333c0,-294.354 -238.978,-533.333 -533.333,-533.333l-1066.67,-0c-294.354,-0 -533.333,238.979 -533.333,533.333l0,1066.67c0,294.355 238.979,533.333 533.333,533.333l1066.67,0c294.355,0 533.333,-238.978 533.333,-533.333l0,-1066.67Z" style="fill:#00030f;"/><g><g id="Mark"><g id="Icon"><g id="Hat"><g id="HatShape"><path d="M1095.74,581.238l0.717,-1.363l401.785,763.776l229.809,-0l153.33,302.538l-1629.42,0l153.329,-302.538l289.381,-0l281.699,-535.498l-87.504,0l159.979,-321.009l46.893,94.094Z" style="fill:#fff;"/></g><path d="M1083.34,1003.52l59.292,183.083l191.875,-0l-155.23,113.151l59.293,183.083l-155.23,-113.151l-155.23,113.151l59.293,-183.083l-155.23,-113.151l191.874,-0l59.293,-183.083Z" style="fill:#fff;"/></g></g></g></g></g></svg>