<?xml version="1.0" encoding="UTF-8" standalone="no"?>
<!DOCTYPE svg PUBLIC "-//W3C//DTD SVG 1.1//EN" "http://www.w3.org/Graphics/SVG/1.1/DTD/svg11.dtd">
<svg width="100%" height="100%" viewBox="0 0 260 260" version="1.1" xmlns="http://www.w3.org/2000/svg" xmlns:xlink="http://www.w3.org/1999/xlink" xml:space="preserve" xmlns:serif="http://www.serif.com/" style="fill-rule:evenodd;clip-rule:evenodd;stroke-linejoin:round;stroke-miterlimit:2;">
    <g transform="matrix(1,0,0,1,-4008,0)">
        <g id="favicon" transform="matrix(0.240741,0,0,0.240741,4008,0)">
            <rect x="0" y="0" width="1080" height="1080" style="fill:none;"/>
            <g transform="matrix(8.25769,0,0,8.34336,-1490.75,-1047.35)">
                <g id="Icon">
                    <path id="Icon1" serif:id="Icon" d="M208.64,220.926L235.361,188.536L226.749,194.455L233.027,174.954L239.166,158.623L265.727,153.237L243.451,168.382L251.281,165.756L257.146,178.178L253.895,183.407L257.774,179.88L269.096,202.447L259.772,202.909L269.096,205.597L283.204,221.185C257.994,229.605 233.158,229.066 208.64,220.926Z" style="fill:rgb(29,78,216);"/>
                </g>
            </g>
        </g>
        <g id="Text">
        </g>
    </g>
</svg>
