<?xml version="1.0" encoding="UTF-8" standalone="no"?>
<!DOCTYPE svg PUBLIC "-//W3C//DTD SVG 1.1//EN" "http://www.w3.org/Graphics/SVG/1.1/DTD/svg11.dtd">
<svg width="100%" height="100%" viewBox="0 0 1080 1080" version="1.1" xmlns="http://www.w3.org/2000/svg" xmlns:xlink="http://www.w3.org/1999/xlink" xml:space="preserve" xmlns:serif="http://www.serif.com/" style="fill-rule:evenodd;clip-rule:evenodd;stroke-linejoin:round;stroke-miterlimit:2;">
    <g transform="matrix(1,0,0,1,-1336,-1606)">
        <g id="inverse" transform="matrix(1,0,0,1,1336,1606)">
            <rect x="0" y="0" width="1080" height="1080" style="fill:none;"/>
            <g id="Background" transform="matrix(1.22285,0,0,1.0506,-3012.8,-71.4407)">
                <rect x="2463.75" y="68" width="883.183" height="1027.99" style="fill:rgb(45,45,45);"/>
            </g>
            <g id="Logo" transform="matrix(1.40899,0,0,1.40899,-243.712,113.875)">
                <g transform="matrix(1.58161,0,0,1.5868,372.685,-15.6948)">
                    <g id="Icon">
                        <path id="Icon1" serif:id="Icon" d="M249.805,122.666L249.878,122.527L290.989,200.422L314.503,200.422L330.192,231.276L163.469,231.276L179.158,200.422L208.767,200.422L237.591,145.809L228.638,145.809L245.007,113.07L249.805,122.666Z" style="fill:rgb(255,225,86);"/>
                    </g>
                </g>
                <g transform="matrix(1.10796,0,0,1.10796,-954.452,-113.432)">
                    <g id="Text-Light">
                        <g>
                            <path d="M1064.87,461.747C1064.87,456.844 1069.74,452.659 1081.91,452.659C1094.19,452.659 1099.51,456.844 1099.51,464.417L1107.18,465.346C1107.18,456.073 1100.09,445.335 1081.91,445.335C1063.6,445.335 1057.22,456.078 1057.22,461.751C1057.22,480.125 1100.11,475.006 1100.11,484.518C1100.11,489.308 1093.08,493.092 1082.24,493.092C1072.68,493.092 1063.67,488.83 1063.67,478.849L1056,477.974C1056,489.799 1066.16,500.538 1082.24,500.538C1104.39,500.538 1107.76,489.804 1107.76,484.518C1107.75,467.24 1064.87,472.377 1064.87,461.747Z" style="fill:white;fill-rule:nonzero;"/>
                            <path d="M1195.77,499.356L1213.36,499.41C1213.36,499.41 1208.4,496.461 1208.4,490.449L1208.44,472.377C1208.32,457.399 1204.33,445.339 1188.34,445.339C1177.96,445.339 1169.08,452.343 1165.32,462.293C1163.2,452.343 1159.7,445.339 1147.25,445.339C1137.75,445.339 1130.51,451.198 1126.29,459.812L1126.32,446.395L1113.6,446.341C1113.6,446.341 1118.56,449.304 1118.56,455.311L1118.56,490.395C1118.56,496.407 1113.6,499.356 1113.6,499.356L1131.19,499.41C1131.19,499.41 1126.23,496.461 1126.23,490.449L1126.27,472.12C1126.27,461.738 1135.14,452.659 1147.25,452.659C1157.33,452.659 1159.63,462.072 1159.63,471.331L1159.63,490.395C1159.63,496.407 1154.67,499.356 1154.67,499.356L1172.26,499.41C1172.26,499.41 1167.3,496.461 1167.3,490.449L1167.34,472.377C1167.34,472.35 1167.34,472.323 1167.34,472.296C1167.34,461.851 1176.28,452.659 1188.34,452.659C1198.42,452.659 1200.73,461.517 1200.73,471.331L1200.73,490.395C1200.73,496.407 1195.77,499.356 1195.77,499.356L1195.77,499.356Z" style="fill:white;fill-rule:nonzero;"/>
                            <path d="M1247.05,445.33C1231.84,445.33 1218.6,457.661 1218.6,472.878C1218.6,488.09 1231.83,500.425 1247.05,500.425C1262.26,500.425 1275.5,488.095 1275.5,472.878C1275.5,457.665 1262.26,445.33 1247.05,445.33L1247.05,445.33ZM1247.05,493.087C1235.1,493.087 1226.27,483.228 1226.27,472.878C1226.27,461.806 1235.1,452.659 1247.05,452.659C1259.01,452.659 1267.83,462.229 1267.83,472.878C1267.83,482.944 1259.01,493.087 1247.05,493.087Z" style="fill:white;fill-rule:nonzero;"/>
                            <path d="M1310.55,445.33C1295.34,445.33 1282.1,457.661 1282.1,472.878C1282.1,488.09 1295.33,500.425 1310.55,500.425C1325.76,500.425 1339,488.095 1339,472.878C1339,457.665 1325.76,445.33 1310.55,445.33L1310.55,445.33ZM1310.55,493.087C1298.6,493.087 1289.77,483.228 1289.77,472.878C1289.77,461.806 1298.6,452.659 1310.55,452.659C1322.51,452.659 1331.33,462.229 1331.33,472.878C1331.33,482.944 1322.51,493.087 1310.55,493.087Z" style="fill:white;fill-rule:nonzero;"/>
                            <path d="M1370.14,452.659L1375.1,446.395L1357.31,446.395L1357.33,429.717L1349.67,429.717L1349.66,446.395L1344.7,446.39L1344.7,452.659L1349.66,452.659L1349.65,499.41L1362.2,499.41C1362.2,499.41 1357.24,496.461 1357.24,490.449L1357.3,452.659L1370.14,452.659Z" style="fill:white;fill-rule:nonzero;"/>
                            <path d="M1418.38,499.41L1436.01,499.41C1436.01,499.41 1431.05,496.461 1431.05,490.449L1431.09,472.377C1430.97,457.399 1424.65,445.339 1411.02,445.339C1401.52,445.339 1394.25,451.198 1390.03,459.812L1390.06,423.073L1377.3,423.073C1377.3,423.073 1382.26,426.036 1382.26,432.044L1382.26,490.449C1382.26,496.461 1377.3,499.41 1377.3,499.41L1394.93,499.41C1394.93,499.41 1389.97,496.461 1389.97,490.449L1390.01,472.12C1390.01,462.689 1398.77,452.655 1411.01,452.655C1421.09,452.655 1423.33,461.237 1423.33,471.38L1423.33,490.444C1423.34,496.461 1418.38,499.41 1418.38,499.41Z" style="fill:white;fill-rule:nonzero;"/>
                            <path d="M1515,446.395L1518.27,447.734C1521.3,448.974 1522.86,452.33 1521.87,455.446L1510.33,492.09L1507.29,492.09L1492.92,446.395L1478.62,446.395L1464.26,492.09L1461.24,492.09L1449.71,455.446C1448.71,452.33 1450.28,448.974 1453.31,447.734L1456.58,446.395L1431.9,446.395C1436.98,448.645 1440.86,452.957 1442.55,458.247L1455.51,499.41L1469.98,499.41L1484.36,453.669L1487.17,453.669L1501.56,499.41L1516.07,499.41L1529.03,458.197C1530.73,452.907 1534.6,448.596 1539.68,446.345L1515,446.395Z" style="fill:white;fill-rule:nonzero;"/>
                            <path d="M1542.21,499.41L1559.8,499.41C1559.8,499.41 1554.83,496.461 1554.83,490.449L1554.92,446.395L1542.2,446.395C1542.2,446.395 1547.16,449.358 1547.16,455.365L1547.16,490.449C1547.17,496.461 1542.21,499.41 1542.21,499.41L1542.21,499.41ZM1550.91,441.294C1553.84,441.294 1554.83,438.398 1554.83,434.826C1554.83,431.255 1553.84,428.359 1550.91,428.359C1547.98,428.359 1547.17,431.255 1547.17,434.826C1547.17,438.398 1547.98,441.294 1550.91,441.294Z" style="fill:white;fill-rule:nonzero;"/>
                            <path d="M1605.28,492.09L1575.38,492.09L1612.09,453.669L1612.09,446.377L1570.95,446.377L1568.11,464.606C1568.11,464.606 1574.51,453.669 1578.03,453.669L1601.75,453.669L1564.9,492.09L1564.9,499.415L1612.22,499.415L1615.05,481.469C1615.06,481.469 1608.84,492.09 1605.28,492.09Z" style="fill:white;fill-rule:nonzero;"/>
                            <path d="M1661.17,492.09L1631.28,492.09L1667.99,453.669L1667.99,446.377L1626.85,446.377L1624.01,464.606C1624.01,464.606 1630.41,453.669 1633.93,453.669L1657.65,453.669L1620.8,492.09L1620.8,499.415L1668.12,499.415L1670.95,481.469C1670.96,481.469 1664.74,492.09 1661.17,492.09Z" style="fill:white;fill-rule:nonzero;"/>
                        </g>
                    </g>
                </g>
            </g>
        </g>
    </g>
</svg>
