<svg xmlns="http://www.w3.org/2000/svg" xmlns:xlink="http://www.w3.org/1999/xlink" width="500" zoomAndPan="magnify" viewBox="0 0 375 374.999991" height="500" preserveAspectRatio="xMidYMid meet" version="1.0"><defs><g/><clipPath id="90d3898a4c"><path d="M 107.007812 131.035156 L 375 131.035156 L 375 135.949219 L 107.007812 135.949219 Z M 369.980469 135.949219 L 375 135.949219 L 375 238.277344 L 369.980469 238.277344 Z M 107.007812 135.949219 L 111.921875 135.949219 L 111.921875 238.277344 L 107.007812 238.277344 Z M 107.007812 238.277344 L 375 238.277344 L 375 243.300781 L 107.007812 243.300781 Z M 107.007812 238.277344 " clip-rule="nonzero"/></clipPath><clipPath id="30e35af3c2"><path d="M 0 131.035156 L 112.933594 131.035156 L 112.933594 243.964844 L 0 243.964844 Z M 0 131.035156 " clip-rule="nonzero"/></clipPath><clipPath id="867813800d"><path d="M 12.292969 163.09375 L 66 163.09375 L 66 211.84375 L 12.292969 211.84375 Z M 12.292969 163.09375 " clip-rule="nonzero"/></clipPath><clipPath id="243d3e1368"><path d="M 67 163.09375 L 100.792969 163.09375 L 100.792969 211.84375 L 67 211.84375 Z M 67 163.09375 " clip-rule="nonzero"/></clipPath></defs><g clip-path="url(#90d3898a4c)"><path fill="#ffffff" d="M 107.007812 131.035156 L 374.953125 131.035156 L 374.953125 243.300781 L 107.007812 243.300781 Z M 107.007812 131.035156 " fill-opacity="1" fill-rule="nonzero"/></g><g clip-path="url(#30e35af3c2)"><path fill="#ffffff" d="M 0 131.035156 L 112.933594 131.035156 L 112.933594 243.964844 L 0 243.964844 Z M 0 131.035156 " fill-opacity="1" fill-rule="nonzero"/></g><g fill="#ffffff" fill-opacity="1"><g transform="translate(120.445734, 186.681608)"><g><path d="M 2.390625 0 L 2.390625 -20.25 L 5.796875 -20.25 L 12.171875 -4.0625 L 18.5625 -20.25 L 22 -20.25 L 22 0 L 19.46875 0 L 19.46875 -16.421875 L 12.875 0 L 11.484375 0 L 4.890625 -16.40625 L 4.890625 0 Z M 2.390625 0 "/></g></g></g><g fill="#ffffff" fill-opacity="1"><g transform="translate(152.222923, 186.681608)"><g><path d="M 0.390625 0 L 7.21875 -20.25 L 11.09375 -20.25 L 17.9375 0 L 15.328125 0 L 13.59375 -5.28125 L 4.71875 -5.28125 L 3.015625 0 Z M 5.46875 -7.46875 L 12.875 -7.46875 L 9.484375 -17.875 L 8.84375 -17.875 Z M 5.46875 -7.46875 "/></g></g></g><g fill="#ffffff" fill-opacity="1"><g transform="translate(177.958018, 186.681608)"><g><path d="M 2.390625 0 L 2.390625 -20.25 L 13.453125 -20.25 L 16.3125 -17.359375 L 16.3125 -10.90625 L 13.453125 -8.015625 L 13.375 -8.015625 L 17.03125 0 L 14.25 0 L 10.65625 -8.015625 L 4.890625 -8.015625 L 4.890625 0 Z M 4.890625 -10.25 L 12.328125 -10.25 L 13.8125 -11.75 L 13.8125 -16.515625 L 12.328125 -18.015625 L 4.890625 -18.015625 Z M 4.890625 -10.25 "/></g></g></g><g fill="#ffffff" fill-opacity="1"><g transform="translate(203.967761, 186.681608)"><g><path d="M 2.390625 0 L 2.390625 -20.25 L 15.734375 -20.25 L 15.734375 -17.9375 L 4.890625 -17.9375 L 4.890625 -11.78125 L 14.578125 -11.78125 L 14.578125 -9.5 L 4.890625 -9.5 L 4.890625 -2.3125 L 15.734375 -2.3125 L 15.734375 0 Z M 2.390625 0 "/></g></g></g><g fill="#ffffff" fill-opacity="1"><g transform="translate(228.549366, 186.681608)"><g><path d="M 2.421875 0 L 2.421875 -2.3125 L 12.390625 -2.3125 L 13.875 -3.8125 L 13.875 -7.859375 L 12.390625 -9.359375 L 4.5625 -9.359375 L 1.703125 -12.21875 L 1.703125 -17.359375 L 4.5625 -20.25 L 15.328125 -20.25 L 15.328125 -17.9375 L 5.6875 -17.9375 L 4.171875 -16.421875 L 4.203125 -13.078125 L 5.6875 -11.5625 L 13.515625 -11.5625 L 16.375 -8.6875 L 16.375 -2.890625 L 13.515625 0 Z M 2.421875 0 "/></g></g></g><g fill="#ffffff" fill-opacity="1"><g transform="translate(254.037299, 186.681608)"><g/></g></g><g fill="#ffffff" fill-opacity="1"><g transform="translate(267.550896, 186.681608)"><g><path d="M 2.390625 0 L 2.390625 -20.25 L 13.078125 -20.25 L 15.9375 -17.359375 L 15.9375 -10.40625 L 13.078125 -7.53125 L 4.890625 -7.53125 L 4.890625 0 Z M 4.890625 -9.75 L 11.953125 -9.75 L 13.4375 -11.265625 L 13.4375 -16.515625 L 11.953125 -18.046875 L 4.890625 -18.015625 Z M 4.890625 -9.75 "/></g></g></g><g fill="#ffffff" fill-opacity="1"><g transform="translate(291.720559, 186.681608)"><g><path d="M 4.75 0 L 1.875 -2.890625 L 1.875 -17.359375 L 4.75 -20.25 L 14.3125 -20.25 L 17.203125 -17.359375 L 17.203125 -2.890625 L 14.3125 0 Z M 5.875 -2.21875 L 13.1875 -2.21875 L 14.703125 -3.734375 L 14.703125 -16.515625 L 13.1875 -18.015625 L 5.875 -18.015625 L 4.375 -16.515625 L 4.375 -3.734375 Z M 5.875 -2.21875 "/></g></g></g><g fill="#ffffff" fill-opacity="1"><g transform="translate(318.1972, 186.681608)"><g><path d="M 2.390625 0 L 2.390625 -20.25 L 13.078125 -20.25 L 15.9375 -17.359375 L 15.9375 -10.40625 L 13.078125 -7.53125 L 4.890625 -7.53125 L 4.890625 0 Z M 4.890625 -9.75 L 11.953125 -9.75 L 13.4375 -11.265625 L 13.4375 -16.515625 L 11.953125 -18.046875 L 4.890625 -18.015625 Z M 4.890625 -9.75 "/></g></g></g><g fill="#ffffff" fill-opacity="1"><g transform="translate(342.366862, 186.681608)"><g><path d="M 0.390625 0 L 7.21875 -20.25 L 11.09375 -20.25 L 17.9375 0 L 15.328125 0 L 13.59375 -5.28125 L 4.71875 -5.28125 L 3.015625 0 Z M 5.46875 -7.46875 L 12.875 -7.46875 L 9.484375 -17.875 L 8.84375 -17.875 Z M 5.46875 -7.46875 "/></g></g></g><g fill="#ffffff" fill-opacity="1"><g transform="translate(161.088446, 213.141451)"><g><path d="M 3.953125 0.03125 C 3.109375 0.03125 2.445312 -0.21875 1.96875 -0.71875 C 1.5 -1.21875 1.265625 -1.953125 1.265625 -2.921875 L 1.265625 -6.984375 L 1.46875 -6.984375 L 1.46875 -2.9375 C 1.46875 -2.019531 1.679688 -1.328125 2.109375 -0.859375 C 2.535156 -0.390625 3.148438 -0.15625 3.953125 -0.15625 C 4.753906 -0.15625 5.367188 -0.390625 5.796875 -0.859375 C 6.234375 -1.328125 6.453125 -2.019531 6.453125 -2.9375 L 6.453125 -6.984375 L 6.65625 -6.984375 L 6.65625 -2.921875 C 6.65625 -1.953125 6.414062 -1.21875 5.9375 -0.71875 C 5.46875 -0.21875 4.804688 0.03125 3.953125 0.03125 Z M 3.953125 0.03125 "/></g></g></g><g fill="#ffffff" fill-opacity="1"><g transform="translate(174.810981, 213.141451)"><g><path d="M 1.328125 -6.984375 L 1.53125 -6.984375 L 1.53125 0 L 1.328125 0 Z M 1.328125 -6.984375 "/></g></g></g><g fill="#ffffff" fill-opacity="1"><g transform="translate(183.471012, 213.141451)"><g><path d="M 3.09375 -8.390625 L 3.296875 -8.390625 L 0 1 L -0.203125 1 Z M 3.09375 -8.390625 "/></g></g></g><g fill="#ffffff" fill-opacity="1"><g transform="translate(192.270559, 213.141451)"><g><path d="M 3.953125 0.03125 C 3.109375 0.03125 2.445312 -0.21875 1.96875 -0.71875 C 1.5 -1.21875 1.265625 -1.953125 1.265625 -2.921875 L 1.265625 -6.984375 L 1.46875 -6.984375 L 1.46875 -2.9375 C 1.46875 -2.019531 1.679688 -1.328125 2.109375 -0.859375 C 2.535156 -0.390625 3.148438 -0.15625 3.953125 -0.15625 C 4.753906 -0.15625 5.367188 -0.390625 5.796875 -0.859375 C 6.234375 -1.328125 6.453125 -2.019531 6.453125 -2.9375 L 6.453125 -6.984375 L 6.65625 -6.984375 L 6.65625 -2.921875 C 6.65625 -1.953125 6.414062 -1.21875 5.9375 -0.71875 C 5.46875 -0.21875 4.804688 0.03125 3.953125 0.03125 Z M 3.953125 0.03125 "/></g></g></g><g fill="#ffffff" fill-opacity="1"><g transform="translate(205.993095, 213.141451)"><g><path d="M 5.6875 0 L 3.09375 -3.453125 L 0.484375 0 L 0.25 0 L 2.96875 -3.609375 L 0.453125 -6.984375 L 0.703125 -6.984375 L 3.09375 -3.765625 L 5.5 -6.984375 L 5.734375 -6.984375 L 3.21875 -3.609375 L 5.9375 0 Z M 5.6875 0 "/></g></g></g><g fill="#ffffff" fill-opacity="1"><g transform="translate(217.991598, 213.141451)"><g/></g></g><g fill="#ffffff" fill-opacity="1"><g transform="translate(226.292868, 213.141451)"><g><path d="M 5.96875 -0.1875 L 5.96875 0 L 1.328125 0 L 1.328125 -6.984375 L 5.828125 -6.984375 L 5.828125 -6.78125 L 1.53125 -6.78125 L 1.53125 -3.640625 L 5.375 -3.640625 L 5.375 -3.453125 L 1.53125 -3.453125 L 1.53125 -0.1875 Z M 5.96875 -0.1875 "/></g></g></g><g fill="#ffffff" fill-opacity="1"><g transform="translate(238.759744, 213.141451)"><g><path d="M 6.8125 -6.984375 L 6.8125 0 L 6.640625 0 L 1.53125 -6.609375 L 1.53125 0 L 1.328125 0 L 1.328125 -6.984375 L 1.5 -6.984375 L 6.609375 -0.375 L 6.609375 -6.984375 Z M 6.8125 -6.984375 "/></g></g></g><g fill="#ffffff" fill-opacity="1"><g transform="translate(252.701528, 213.141451)"><g><path d="M 6.40625 -3.421875 L 6.59375 -3.421875 L 6.59375 -0.875 C 6.300781 -0.570312 5.945312 -0.34375 5.53125 -0.1875 C 5.125 -0.0390625 4.679688 0.03125 4.203125 0.03125 C 3.515625 0.03125 2.894531 -0.117188 2.34375 -0.421875 C 1.800781 -0.734375 1.375 -1.15625 1.0625 -1.6875 C 0.75 -2.226562 0.59375 -2.828125 0.59375 -3.484375 C 0.59375 -4.148438 0.75 -4.75 1.0625 -5.28125 C 1.375 -5.820312 1.800781 -6.242188 2.34375 -6.546875 C 2.894531 -6.859375 3.515625 -7.015625 4.203125 -7.015625 C 4.679688 -7.015625 5.125 -6.9375 5.53125 -6.78125 C 5.945312 -6.632812 6.300781 -6.414062 6.59375 -6.125 L 6.484375 -5.984375 C 5.898438 -6.535156 5.140625 -6.8125 4.203125 -6.8125 C 3.554688 -6.8125 2.972656 -6.664062 2.453125 -6.375 C 1.929688 -6.082031 1.519531 -5.679688 1.21875 -5.171875 C 0.925781 -4.671875 0.78125 -4.109375 0.78125 -3.484375 C 0.78125 -2.867188 0.925781 -2.304688 1.21875 -1.796875 C 1.519531 -1.285156 1.929688 -0.882812 2.453125 -0.59375 C 2.972656 -0.300781 3.554688 -0.15625 4.203125 -0.15625 C 5.117188 -0.15625 5.851562 -0.421875 6.40625 -0.953125 Z M 6.40625 -3.421875 "/></g></g></g><g fill="#ffffff" fill-opacity="1"><g transform="translate(266.224762, 213.141451)"><g><path d="M 1.328125 -6.984375 L 1.53125 -6.984375 L 1.53125 0 L 1.328125 0 Z M 1.328125 -6.984375 "/></g></g></g><g fill="#ffffff" fill-opacity="1"><g transform="translate(274.884789, 213.141451)"><g><path d="M 6.8125 -6.984375 L 6.8125 0 L 6.640625 0 L 1.53125 -6.609375 L 1.53125 0 L 1.328125 0 L 1.328125 -6.984375 L 1.5 -6.984375 L 6.609375 -0.375 L 6.609375 -6.984375 Z M 6.8125 -6.984375 "/></g></g></g><g fill="#ffffff" fill-opacity="1"><g transform="translate(288.826573, 213.141451)"><g><path d="M 5.96875 -0.1875 L 5.96875 0 L 1.328125 0 L 1.328125 -6.984375 L 5.828125 -6.984375 L 5.828125 -6.78125 L 1.53125 -6.78125 L 1.53125 -3.640625 L 5.375 -3.640625 L 5.375 -3.453125 L 1.53125 -3.453125 L 1.53125 -0.1875 Z M 5.96875 -0.1875 "/></g></g></g><g fill="#ffffff" fill-opacity="1"><g transform="translate(301.293449, 213.141451)"><g><path d="M 5.96875 -0.1875 L 5.96875 0 L 1.328125 0 L 1.328125 -6.984375 L 5.828125 -6.984375 L 5.828125 -6.78125 L 1.53125 -6.78125 L 1.53125 -3.640625 L 5.375 -3.640625 L 5.375 -3.453125 L 1.53125 -3.453125 L 1.53125 -0.1875 Z M 5.96875 -0.1875 "/></g></g></g><g fill="#ffffff" fill-opacity="1"><g transform="translate(313.760326, 213.141451)"><g><path d="M 6.28125 0 L 4.5 -2.46875 C 4.269531 -2.414062 4 -2.390625 3.6875 -2.390625 L 1.53125 -2.390625 L 1.53125 0 L 1.328125 0 L 1.328125 -6.984375 L 3.6875 -6.984375 C 4.539062 -6.984375 5.210938 -6.78125 5.703125 -6.375 C 6.191406 -5.96875 6.4375 -5.40625 6.4375 -4.6875 C 6.4375 -4.125 6.285156 -3.65625 5.984375 -3.28125 C 5.679688 -2.90625 5.257812 -2.648438 4.71875 -2.515625 L 6.53125 0 Z M 3.703125 -2.578125 C 4.515625 -2.578125 5.140625 -2.757812 5.578125 -3.125 C 6.015625 -3.488281 6.234375 -4.007812 6.234375 -4.6875 C 6.234375 -5.351562 6.015625 -5.867188 5.578125 -6.234375 C 5.140625 -6.597656 4.515625 -6.78125 3.703125 -6.78125 L 1.53125 -6.78125 L 1.53125 -2.578125 Z M 3.703125 -2.578125 "/></g></g></g><g clip-path="url(#867813800d)"><path fill="#0d0d0d" d="M 55.960938 200.003906 L 65.234375 200.003906 L 65.234375 163.636719 C 65.234375 163.394531 64.988281 163.089844 64.5625 163.089844 L 56.511719 163.089844 C 56.265625 163.089844 55.960938 163.273438 55.839844 163.453125 L 39.1875 199.09375 L 21.683594 163.453125 C 21.621094 163.273438 21.257812 163.089844 21.074219 163.089844 L 12.902344 163.089844 C 12.472656 163.089844 12.289062 163.394531 12.289062 163.636719 L 12.289062 211.195312 C 12.289062 211.4375 12.472656 211.742188 12.902344 211.742188 L 20.953125 211.742188 C 21.316406 211.742188 21.621094 211.4375 21.621094 211.195312 L 21.621094 183.886719 L 34.859375 209.429688 C 34.917969 209.613281 35.285156 209.796875 35.46875 209.796875 L 42.96875 209.796875 C 43.152344 209.796875 43.457031 209.613281 43.519531 209.429688 L 55.960938 184.558594 Z M 55.960938 200.003906 " fill-opacity="1" fill-rule="nonzero"/></g><g clip-path="url(#243d3e1368)"><path fill="#0d0d0d" d="M 84.324219 163.089844 L 68.527344 163.089844 C 68.222656 163.089844 67.917969 163.394531 67.917969 163.636719 L 67.917969 172.03125 L 84.324219 172.03125 C 85.421875 172.03125 91.519531 172.332031 91.519531 177.683594 C 91.519531 183.035156 85.542969 183.160156 84.324219 183.160156 L 67.917969 183.160156 L 67.917969 211.195312 C 67.917969 211.4375 68.222656 211.742188 68.527344 211.742188 L 76.457031 211.742188 C 76.882812 211.742188 77.066406 211.4375 77.066406 211.195312 L 77.066406 192.160156 L 84.324219 192.160156 C 85.484375 192.160156 100.792969 191.976562 100.792969 177.683594 C 100.792969 163.394531 86.277344 163.089844 84.324219 163.089844 Z M 84.324219 163.089844 " fill-opacity="1" fill-rule="nonzero"/></g></svg>