<?xml version="1.0" standalone="no"?>
<!DOCTYPE svg PUBLIC "-//W3C//DTD SVG 20010904//EN"
 "http://www.w3.org/TR/2001/REC-SVG-20010904/DTD/svg10.dtd">
<svg version="1.0" xmlns="http://www.w3.org/2000/svg"
 width="1000.000000pt" height="1000.000000pt" viewBox="0 0 1000.000000 1000.000000"
 preserveAspectRatio="xMidYMid meet">
<metadata>
Created by potrace 1.14, written by Peter Selinger 2001-2017
</metadata>
<g transform="translate(0.000000,1000.000000) scale(0.100000,-0.100000)"
fill="#000000" stroke="none">
<path d="M1759 9490 c-467 -45 -894 -343 -1110 -773 -52 -102 -103 -257 -126
-377 -17 -90 -18 -262 -18 -3340 0 -3078 1 -3250 18 -3340 109 -579 557 -1028
1132 -1136 97 -18 212 -19 3345 -19 3133 0 3248 1 3345 19 504 95 918 455
1080 939 19 56 42 145 52 197 17 90 18 262 18 3340 0 3078 -1 3250 -18 3340
-108 572 -524 998 -1105 1132 l-97 22 -3220 2 c-1771 1 -3254 -2 -3296 -6z
m856 -2843 c8 -13 278 -560 599 -1217 322 -657 589 -1200 593 -1207 5 -8 226
458 573 1203 311 668 572 1222 581 1230 21 19 598 21 617 2 9 -9 12 -304 12
-1265 l0 -1253 -315 0 -315 0 -2 523 -3 522 -423 -845 c-233 -465 -429 -851
-434 -857 -16 -20 -551 -18 -571 1 -8 8 -214 402 -458 875 l-444 861 -5 -930
c-3 -637 -8 -932 -16 -940 -7 -7 -109 -9 -315 -8 l-304 3 -3 1650 c-1 908 0
1656 3 1663 3 9 75 12 309 12 l306 0 15 -23z m4600 -9 c389 -91 640 -293 745
-598 38 -111 51 -206 51 -370 0 -236 -39 -386 -140 -541 -110 -168 -286 -296
-513 -373 -184 -63 -295 -76 -649 -76 l-309 0 0 -658 c0 -498 -3 -661 -12
-670 -17 -17 -589 -17 -606 0 -9 9 -12 240 -12 980 l0 968 610 0 c391 0 628 4
662 11 132 26 231 83 283 162 44 67 59 130 53 222 -6 90 -49 186 -106 236 -50
44 -164 95 -242 108 -36 6 -76 13 -90 15 -14 3 -283 5 -597 5 l-573 1 0 293
c0 221 3 296 13 306 9 9 152 11 667 8 l655 -4 110 -25z"/>
</g>
</svg>
