<?xml version="1.0" standalone="no"?>
<!DOCTYPE svg PUBLIC "-//W3C//DTD SVG 20010904//EN"
 "http://www.w3.org/TR/2001/REC-SVG-20010904/DTD/svg10.dtd">
<svg version="1.0" xmlns="http://www.w3.org/2000/svg"
 width="700.000000pt" height="700.000000pt" viewBox="0 0 700.000000 700.000000"
 preserveAspectRatio="xMidYMid meet">
<metadata>
Created by potrace 1.14, written by Peter Selinger 2001-2017
</metadata>
<g transform="translate(0.000000,700.000000) scale(0.100000,-0.100000)"
fill="#000000" stroke="none">
<path d="M1716 6619 c-344 -51 -638 -200 -887 -448 -221 -222 -353 -458 -426
-766 l-28 -120 0 -1785 0 -1785 28 -120 c73 -308 205 -544 426 -766 227 -227
471 -359 796 -432 l100 -22 1775 0 1775 0 101 22 c323 72 567 205 795 432 227
228 360 472 432 795 l22 101 0 1775 0 1775 -22 101 c-72 323 -205 568 -432
794 -222 222 -452 351 -761 426 l-115 28 -1760 2 c-968 1 -1786 -2 -1819 -7z
m948 -975 c134 -33 274 -131 346 -244 67 -104 70 -130 70 -542 l0 -369 61 42
c81 57 157 142 194 214 l30 60 3 370 c1 204 4 380 7 393 5 22 6 22 213 22 148
0 211 -3 220 -12 9 -9 12 -457 12 -1956 l0 -1944 68 -113 68 -113 72 117 72
118 2 1949 3 1949 365 0 c357 0 366 0 430 -23 196 -71 341 -231 370 -407 14
-83 13 -2459 0 -2545 -31 -193 -207 -369 -420 -421 -60 -14 -226 -18 -277 -7
l-33 8 0 -251 0 -251 95 -158 c52 -87 95 -160 95 -163 0 -3 -7 -13 -16 -21
-14 -14 -162 -16 -1480 -16 -991 0 -1472 3 -1485 10 -10 6 -19 20 -19 31 0 12
41 88 90 171 l90 149 0 1142 c0 1261 -3 1192 64 1324 67 131 105 168 329 316
174 116 211 144 250 196 75 100 82 132 82 379 l0 213 -42 40 c-38 35 -47 39
-96 39 -40 0 -61 -6 -81 -21 -54 -42 -56 -56 -56 -339 0 -161 -4 -269 -10
-281 -10 -18 -23 -19 -213 -19 -145 0 -206 3 -215 12 -19 19 -17 881 2 897 11
9 30 4 90 -26 63 -31 79 -36 94 -26 168 118 360 155 556 107z"/>
<path d="M4540 3948 c0 -844 4 -1336 10 -1358 30 -104 174 -130 249 -45 l31
36 0 1297 c0 1009 -3 1302 -13 1321 -26 52 -60 66 -173 69 l-104 4 0 -1324z"/>
<path d="M2575 4267 c-113 -83 -182 -175 -209 -282 -14 -52 -16 -199 -16
-1180 l0 -1121 74 -117 74 -118 71 118 71 119 -2 1312 -3 1313 -60 -44z"/>
<path d="M3293 4261 c-114 -81 -186 -189 -203 -308 -6 -41 -10 -501 -10 -1165
l0 -1097 71 -118 c39 -65 72 -119 73 -120 1 -1 34 50 74 112 l72 115 -2 1316
-3 1315 -72 -50z"/>
</g>
</svg>
