<?xml version="1.0" standalone="no"?>
<!DOCTYPE svg PUBLIC "-//W3C//DTD SVG 20010904//EN"
 "http://www.w3.org/TR/2001/REC-SVG-20010904/DTD/svg10.dtd">
<svg version="1.0" xmlns="http://www.w3.org/2000/svg"
 width="300.000000pt" height="300.000000pt" viewBox="0 0 300.000000 300.000000"
 preserveAspectRatio="xMidYMid meet">
<metadata>
Created by potrace 1.14, written by Peter Selinger 2001-2017
</metadata>
<g transform="translate(0.000000,300.000000) scale(0.100000,-0.100000)"
fill="#000000" stroke="none">
<path d="M1960 2554 c-36 -8 -74 -16 -85 -18 -11 -3 -76 -16 -145 -30 -69 -15
-192 -40 -275 -57 -82 -17 -150 -31 -151 -32 -16 -34 -206 -570 -243 -687 -29
-91 -65 -203 -81 -250 -15 -47 -26 -87 -24 -89 3 -3 52 28 110 68 58 40 107
71 108 69 2 -1 -165 -208 -369 -458 -205 -250 -370 -458 -366 -461 14 -15 328
-99 461 -124 14 -3 36 -7 50 -10 14 -3 41 -7 60 -10 32 -3 81 -10 155 -20 162
-23 522 -23 705 0 110 14 144 19 235 37 55 10 111 21 125 24 40 8 210 54 278
76 l63 20 -23 26 c-13 14 -42 47 -65 72 -23 25 -50 54 -60 66 -10 12 -47 54
-83 94 -36 40 -72 81 -80 90 -88 101 -92 104 -195 133 -55 16 -108 31 -117 33
-50 14 14 24 185 28 15 0 27 4 27 8 0 5 -72 153 -161 330 -131 262 -163 320
-173 308 -18 -23 -90 -86 -84 -75 3 6 22 39 43 73 l37 64 -42 91 c-24 51 -61
130 -83 177 -22 47 -41 86 -42 88 -2 2 -49 -13 -106 -32 -99 -34 -107 -32 -43
12 86 57 513 353 529 365 25 20 13 20 -75 1z"/>
</g>
</svg>
