<?xml version="1.0" standalone="no"?>
<!DOCTYPE svg PUBLIC "-//W3C//DTD SVG 20010904//EN"
 "http://www.w3.org/TR/2001/REC-SVG-20010904/DTD/svg10.dtd">
<svg version="1.0" xmlns="http://www.w3.org/2000/svg" width="1200.000000pt" height="1200.000000pt" viewBox="0 0 1200.000000 1200.000000" preserveAspectRatio="xMidYMid meet">
<metadata>
Created by potrace 1.14, written by Peter Selinger 2001-2017
</metadata>
<g transform="translate(0.000000,1200.000000) scale(0.100000,-0.100000)" fill="#000000" stroke="none">
<path d="M5282 9088 c-320 -645 -582 -1176 -582 -1180 0 -5 142 -8 316 -8 249
0 315 -3 311 -12 -3 -7 -468 -893 -1034 -1968 l-1029 -1955 -1068 -5 -1068 -5
-563 -1110 -563 -1110 2999 -3 c1649 -1 4348 -1 5998 0 l2999 3 -563 1110
-563 1110 -849 3 -848 3 -1470 2796 c-808 1538 -1477 2806 -1486 2817 -9 12
-91 171 -183 354 -91 182 -167 332 -169 332 -2 0 -265 -528 -585 -1172z"></path>
</g>
</svg>
