<?xml version="1.0" encoding="UTF-8" standalone="no"?>
<!DOCTYPE svg PUBLIC "-//W3C//DTD SVG 1.1//EN" "http://www.w3.org/Graphics/SVG/1.1/DTD/svg11.dtd">
<svg width="100%" height="100%" viewBox="0 0 1000 300" version="1.1" xmlns="http://www.w3.org/2000/svg" xmlns:xlink="http://www.w3.org/1999/xlink" xml:space="preserve" xmlns:serif="http://www.serif.com/" style="fill-rule:evenodd;clip-rule:evenodd;stroke-linejoin:round;stroke-miterlimit:2;">
    <g transform="matrix(1,0,0,1,-1200,-1200)">
        <g id="DT---LB" serif:id="DT - LB" transform="matrix(1,0,0,0.3,1200,1200)">
            <rect x="0" y="0" width="1000" height="1000" style="fill:none;"/>
            <clipPath id="_clip1">
                <rect x="0" y="0" width="1000" height="1000"/>
            </clipPath>
            <g clip-path="url(#_clip1)">
                <g transform="matrix(1.18251,0,0,1.18251,-56.7605,-91.2551)">
                    <g transform="matrix(1,0,0,1,-7.48167,0)">
                        <g transform="matrix(1.65839,0,0,5.5282,-27.4378,-882.051)">
                            <rect x="50" y="189.703" width="120.599" height="120.594" style="fill:white;fill-rule:nonzero;"/>
                        </g>
                        <g transform="matrix(1.63416,0,0,5.49851,-210.965,-2075.85)">
                            <g transform="matrix(52.2315,0,0,52.2315,186.348,489.355)">
                                <path d="M0.716,-0.193L0.868,-0.193L0.868,-0.791C0.868,-0.795 0.864,-0.8 0.857,-0.8L0.725,-0.8C0.721,-0.8 0.716,-0.797 0.714,-0.794L0.441,-0.208L0.154,-0.794C0.153,-0.797 0.147,-0.8 0.144,-0.8L0.01,-0.8C0.003,-0.8 0,-0.795 0,-0.791L0,-0.009C0,-0.005 0.003,-0 0.01,-0L0.142,-0C0.148,-0 0.153,-0.005 0.153,-0.009L0.153,-0.458L0.37,-0.038C0.371,-0.035 0.377,-0.032 0.38,-0.032L0.503,-0.032C0.506,-0.032 0.511,-0.035 0.512,-0.038L0.716,-0.447L0.716,-0.193Z" style="fill:rgb(19,78,74);fill-rule:nonzero;"/>
                            </g>
                            <g transform="matrix(52.2315,0,0,52.2315,233.983,489.355)">
                                <path d="M0.269,-0.8L0.01,-0.8C0.005,-0.8 0,-0.795 0,-0.791L0,-0.653L0.269,-0.653C0.287,-0.653 0.387,-0.648 0.387,-0.56C0.387,-0.472 0.289,-0.47 0.269,-0.47L0,-0.47L0,-0.009C0,-0.005 0.005,-0 0.01,-0L0.14,-0C0.147,-0 0.15,-0.005 0.15,-0.009L0.15,-0.322L0.269,-0.322C0.288,-0.322 0.539,-0.325 0.539,-0.56C0.539,-0.795 0.301,-0.8 0.269,-0.8Z" style="fill:rgb(19,78,74);fill-rule:nonzero;"/>
                            </g>
                        </g>
                    </g>
                    <g transform="matrix(0.861053,0,0,2.89611,-1056.59,-3602.12)">
                        <g transform="matrix(107.601,0,0,107.601,1551.62,1398.53)">
                            <path d="M0.087,-0L0.087,-0.737L0.211,-0.737L0.443,-0.148L0.676,-0.737L0.801,-0.737L0.801,-0L0.709,-0L0.709,-0.598L0.469,-0L0.418,-0L0.178,-0.597L0.178,-0L0.087,-0Z" style="fill:white;fill-rule:nonzero;"/>
                        </g>
                        <g transform="matrix(107.601,0,0,107.601,1647.06,1398.53)">
                            <path d="M0.014,-0L0.263,-0.737L0.404,-0.737L0.653,-0L0.558,-0L0.495,-0.192L0.172,-0.192L0.11,-0L0.014,-0ZM0.199,-0.272L0.469,-0.272L0.345,-0.651L0.322,-0.651L0.199,-0.272Z" style="fill:white;fill-rule:nonzero;"/>
                        </g>
                        <g transform="matrix(107.601,0,0,107.601,1718.83,1398.53)">
                            <path d="M0.087,-0L0.087,-0.737L0.49,-0.737L0.594,-0.632L0.594,-0.397L0.49,-0.292L0.487,-0.292L0.62,-0L0.519,-0L0.388,-0.292L0.178,-0.292L0.178,-0L0.087,-0ZM0.178,-0.373L0.449,-0.373L0.503,-0.428L0.503,-0.601L0.449,-0.656L0.178,-0.656L0.178,-0.373Z" style="fill:white;fill-rule:nonzero;"/>
                        </g>
                        <g transform="matrix(107.601,0,0,107.601,1791.68,1398.53)">
                            <path d="M0.087,-0L0.087,-0.737L0.573,-0.737L0.573,-0.653L0.178,-0.653L0.178,-0.429L0.531,-0.429L0.531,-0.346L0.178,-0.346L0.178,-0.084L0.573,-0.084L0.573,-0L0.087,-0Z" style="fill:white;fill-rule:nonzero;"/>
                        </g>
                        <g transform="matrix(107.601,0,0,107.601,1857.08,1398.53)">
                            <path d="M0.088,-0L0.088,-0.084L0.451,-0.084L0.505,-0.139L0.505,-0.286L0.451,-0.341L0.166,-0.341L0.062,-0.445L0.062,-0.632L0.166,-0.737L0.558,-0.737L0.558,-0.653L0.207,-0.653L0.152,-0.598L0.153,-0.476L0.207,-0.421L0.492,-0.421L0.596,-0.316L0.596,-0.105L0.492,-0L0.088,-0Z" style="fill:white;fill-rule:nonzero;"/>
                        </g>
                    </g>
                    <g transform="matrix(0.861053,0,0,2.89611,-970.48,-3268.78)">
                        <g transform="matrix(107.601,0,0,107.601,1551.62,1398.53)">
                            <path d="M0.087,-0L0.087,-0.737L0.476,-0.737L0.58,-0.632L0.58,-0.379L0.476,-0.274L0.178,-0.274L0.178,-0L0.087,-0ZM0.178,-0.355L0.435,-0.355L0.489,-0.41L0.489,-0.601L0.435,-0.657L0.178,-0.656L0.178,-0.355Z" style="fill:white;fill-rule:nonzero;"/>
                        </g>
                        <g transform="matrix(107.601,0,0,107.601,1617.26,1398.53)">
                            <path d="M0.173,-0L0.068,-0.105L0.068,-0.632L0.173,-0.737L0.521,-0.737L0.626,-0.632L0.626,-0.105L0.521,-0L0.173,-0ZM0.214,-0.081L0.48,-0.081L0.535,-0.136L0.535,-0.601L0.48,-0.656L0.214,-0.656L0.159,-0.601L0.159,-0.136L0.214,-0.081Z" style="fill:white;fill-rule:nonzero;"/>
                        </g>
                        <g transform="matrix(107.601,0,0,107.601,1691.93,1398.53)">
                            <path d="M0.087,-0L0.087,-0.737L0.476,-0.737L0.58,-0.632L0.58,-0.379L0.476,-0.274L0.178,-0.274L0.178,-0L0.087,-0ZM0.178,-0.355L0.435,-0.355L0.489,-0.41L0.489,-0.601L0.435,-0.657L0.178,-0.656L0.178,-0.355Z" style="fill:white;fill-rule:nonzero;"/>
                        </g>
                        <g transform="matrix(107.601,0,0,107.601,1750.95,1398.53)">
                            <path d="M0.014,-0L0.263,-0.737L0.404,-0.737L0.653,-0L0.558,-0L0.495,-0.192L0.172,-0.192L0.11,-0L0.014,-0ZM0.199,-0.272L0.469,-0.272L0.345,-0.651L0.322,-0.651L0.199,-0.272Z" style="fill:white;fill-rule:nonzero;"/>
                        </g>
                    </g>
                </g>
            </g>
        </g>
    </g>
</svg>
