<?xml version="1.0" encoding="UTF-8" standalone="no"?>
<!DOCTYPE svg PUBLIC "-//W3C//DTD SVG 1.1//EN" "http://www.w3.org/Graphics/SVG/1.1/DTD/svg11.dtd">
<svg width="100%" height="100%" viewBox="0 0 1000 1000" version="1.1" xmlns="http://www.w3.org/2000/svg" xmlns:xlink="http://www.w3.org/1999/xlink" xml:space="preserve" xmlns:serif="http://www.serif.com/" style="fill-rule:evenodd;clip-rule:evenodd;stroke-linejoin:round;stroke-miterlimit:2;">
    <g transform="matrix(1,0,0,1,0,-383)">
        <g id="Favicon" transform="matrix(0.889954,0,0,1.55298,0,-212.431)">
            <rect x="0" y="383.412" width="1123.65" height="643.923" style="fill:none;"/>
            <g transform="matrix(1.00679,0,0,0.576955,58.4299,195.922)">
                <path d="M1000,633C1000,495.021 887.979,383 750,383L250,383C112.021,383 0,495.021 0,633L0,1133C0,1270.98 112.021,1383 250,1383L750,1383C887.979,1383 1000,1270.98 1000,1133L1000,633Z" style="fill:rgb(8,47,73);"/>
            </g>
            <g transform="matrix(3.49264,0,0,1.9085,-497.869,832.309)">
                <g transform="matrix(288,0,0,288,223.653,37.7452)">
                    <path d="M0.117,-0.724C0.142,-0.724 0.164,-0.716 0.183,-0.699C0.201,-0.682 0.21,-0.661 0.21,-0.638L0.21,-0.527C0.221,-0.535 0.229,-0.541 0.234,-0.546C0.239,-0.551 0.245,-0.558 0.25,-0.568C0.255,-0.577 0.257,-0.588 0.257,-0.601L0.257,-0.706C0.257,-0.71 0.259,-0.712 0.262,-0.712L0.321,-0.712C0.325,-0.712 0.327,-0.71 0.327,-0.706L0.327,-0.058L0.355,-0.009C0.356,-0.007 0.356,-0.005 0.355,-0.003C0.354,-0.001 0.352,-0 0.35,-0L0,-0C-0.003,-0 -0.004,-0.001 -0.005,-0.003C-0.006,-0.005 -0.006,-0.007 -0.005,-0.009L0.023,-0.058L0.023,-0.426C0.023,-0.444 0.027,-0.46 0.034,-0.473C0.041,-0.487 0.049,-0.497 0.056,-0.503C0.063,-0.509 0.074,-0.516 0.087,-0.525C0.099,-0.533 0.108,-0.539 0.114,-0.544C0.12,-0.549 0.126,-0.556 0.132,-0.566C0.137,-0.576 0.14,-0.588 0.14,-0.601L0.14,-0.648C0.14,-0.654 0.138,-0.659 0.133,-0.664C0.128,-0.669 0.123,-0.671 0.117,-0.671C0.11,-0.671 0.105,-0.669 0.101,-0.664C0.096,-0.659 0.094,-0.654 0.094,-0.648L0.094,-0.566C0.094,-0.562 0.092,-0.56 0.088,-0.56L0.029,-0.56C0.026,-0.56 0.024,-0.562 0.024,-0.566L0.024,-0.706C0.024,-0.712 0.027,-0.714 0.032,-0.711L0.052,-0.7C0.071,-0.716 0.093,-0.724 0.117,-0.724ZM0.093,-0.426L0.093,-0.058L0.117,-0.018L0.14,-0.058L0.14,-0.499C0.129,-0.491 0.121,-0.485 0.116,-0.48C0.111,-0.475 0.106,-0.468 0.101,-0.459C0.096,-0.449 0.093,-0.438 0.093,-0.426ZM0.21,-0.426L0.21,-0.058L0.233,-0.018L0.257,-0.058L0.257,-0.499C0.246,-0.492 0.238,-0.486 0.233,-0.481C0.227,-0.475 0.222,-0.468 0.217,-0.459C0.212,-0.449 0.21,-0.438 0.21,-0.426Z" style="fill:white;fill-rule:nonzero;"/>
                </g>
                <g transform="matrix(288,0,0,288,324.453,37.7452)">
                    <path d="M0.116,-0L0,-0C-0.003,-0 -0.005,-0.001 -0.006,-0.003C-0.007,-0.005 -0.007,-0.007 -0.006,-0.009L0.023,-0.058L0.023,-0.706C0.023,-0.71 0.025,-0.712 0.029,-0.712L0.116,-0.712C0.142,-0.712 0.164,-0.704 0.183,-0.687C0.201,-0.67 0.21,-0.65 0.21,-0.627L0.21,-0.225C0.21,-0.202 0.201,-0.182 0.183,-0.165C0.164,-0.148 0.142,-0.14 0.116,-0.14C0.108,-0.14 0.1,-0.141 0.093,-0.143L0.093,-0.058L0.121,-0.009C0.122,-0.007 0.123,-0.005 0.122,-0.003C0.121,-0.001 0.119,-0 0.116,-0ZM0.116,-0.659L0.093,-0.659L0.093,-0.216C0.093,-0.209 0.095,-0.204 0.1,-0.2C0.104,-0.195 0.109,-0.193 0.116,-0.193C0.123,-0.193 0.128,-0.195 0.133,-0.2C0.138,-0.204 0.14,-0.209 0.14,-0.216L0.14,-0.636C0.14,-0.643 0.138,-0.648 0.133,-0.653C0.128,-0.657 0.123,-0.659 0.116,-0.659Z" style="fill:white;fill-rule:nonzero;"/>
                </g>
            </g>
        </g>
    </g>
</svg>
