<?xml version="1.0" encoding="UTF-8" standalone="no"?>
<!DOCTYPE svg PUBLIC "-//W3C//DTD SVG 1.1//EN" "http://www.w3.org/Graphics/SVG/1.1/DTD/svg11.dtd">
<svg width="100%" height="100%" viewBox="0 0 1080 1080" version="1.1" xmlns="http://www.w3.org/2000/svg" xmlns:xlink="http://www.w3.org/1999/xlink" xml:space="preserve" xmlns:serif="http://www.serif.com/" style="fill-rule:evenodd;clip-rule:evenodd;stroke-linejoin:round;stroke-miterlimit:2;">
    <g transform="matrix(1,0,0,1,0,-1606)">
        <g id="Text">
        </g>
        <g id="full-color" transform="matrix(1,0,0,1,0,1606)">
            <rect x="0" y="0" width="1080" height="1080" style="fill:none;"/>
            <g id="Logo" transform="matrix(1.34583,0,0,1.34583,-159.21,-181.984)">
                <g transform="matrix(1.54723,0,0,1.56328,-137.642,239.039)">
                    <g id="Icon">
                        <path id="Icon1" serif:id="Icon" d="M208.64,220.926L235.361,188.536L226.749,194.455L233.027,174.954L239.166,158.623L265.727,153.237L243.451,168.382L251.281,165.756L257.146,178.178L253.895,183.407L257.774,179.88L269.096,202.447L259.772,202.909L269.096,205.597L283.204,221.185C257.994,229.605 233.158,229.066 208.64,220.926Z" style="fill:rgb(29,78,216);"/>
                    </g>
                </g>
                <g id="Text1" serif:id="Text" transform="matrix(0.942329,0,0,0.942329,105.814,-12.4097)">
                    <g id="surname" transform="matrix(1.69141,0,0,1.69141,-1548.39,-235.249)">
                        <g transform="matrix(63.852,0,0,63.852,1052.4,499.41)">
                            <path d="M0.065,-0.5L0.145,-0.5L0.145,-0L0.065,-0L0.065,-0.5ZM0.317,-0.51C0.344,-0.51 0.368,-0.506 0.389,-0.498C0.41,-0.49 0.428,-0.478 0.443,-0.463C0.458,-0.448 0.469,-0.429 0.477,-0.407C0.485,-0.386 0.489,-0.361 0.489,-0.334L0.489,-0L0.409,-0L0.409,-0.314C0.409,-0.353 0.4,-0.382 0.382,-0.401C0.364,-0.42 0.337,-0.43 0.301,-0.43C0.274,-0.43 0.248,-0.423 0.225,-0.409C0.202,-0.395 0.183,-0.376 0.168,-0.352C0.153,-0.327 0.143,-0.299 0.14,-0.267L0.139,-0.325C0.142,-0.353 0.149,-0.378 0.16,-0.401C0.17,-0.424 0.183,-0.443 0.199,-0.46C0.214,-0.476 0.232,-0.488 0.253,-0.497C0.273,-0.506 0.294,-0.51 0.317,-0.51ZM0.653,-0.51C0.68,-0.51 0.704,-0.506 0.725,-0.498C0.746,-0.49 0.764,-0.478 0.779,-0.463C0.794,-0.448 0.805,-0.429 0.813,-0.407C0.821,-0.386 0.825,-0.361 0.825,-0.334L0.825,-0L0.745,-0L0.745,-0.314C0.745,-0.353 0.736,-0.382 0.718,-0.401C0.7,-0.42 0.673,-0.43 0.637,-0.43C0.61,-0.43 0.584,-0.423 0.561,-0.409C0.538,-0.395 0.519,-0.376 0.503,-0.352C0.489,-0.327 0.479,-0.299 0.476,-0.267L0.475,-0.325C0.478,-0.353 0.485,-0.378 0.496,-0.401C0.506,-0.424 0.519,-0.443 0.535,-0.46C0.55,-0.476 0.568,-0.488 0.589,-0.497C0.609,-0.506 0.63,-0.51 0.653,-0.51Z" style="fill:rgb(45,45,45);fill-rule:nonzero;"/>
                        </g>
                        <g transform="matrix(63.852,0,0,63.852,1109.23,499.41)">
                            <path d="M0.254,0.01C0.215,0.01 0.179,-0.001 0.146,-0.024C0.113,-0.046 0.086,-0.077 0.067,-0.116C0.047,-0.155 0.037,-0.199 0.037,-0.249C0.037,-0.299 0.047,-0.344 0.067,-0.383C0.087,-0.422 0.114,-0.453 0.149,-0.476C0.183,-0.499 0.221,-0.51 0.264,-0.51C0.311,-0.51 0.346,-0.498 0.371,-0.474C0.395,-0.451 0.411,-0.419 0.421,-0.38C0.43,-0.341 0.434,-0.297 0.434,-0.249C0.434,-0.224 0.431,-0.196 0.426,-0.167C0.421,-0.137 0.411,-0.109 0.399,-0.082C0.386,-0.055 0.367,-0.033 0.344,-0.016C0.321,0.001 0.291,0.01 0.254,0.01ZM0.274,-0.066C0.308,-0.066 0.336,-0.074 0.359,-0.091C0.381,-0.108 0.397,-0.13 0.408,-0.158C0.419,-0.185 0.424,-0.216 0.424,-0.249C0.424,-0.286 0.419,-0.318 0.407,-0.345C0.397,-0.373 0.38,-0.395 0.358,-0.41C0.335,-0.426 0.307,-0.434 0.274,-0.434C0.224,-0.434 0.185,-0.417 0.158,-0.382C0.131,-0.346 0.117,-0.302 0.117,-0.249C0.117,-0.214 0.124,-0.182 0.138,-0.155C0.151,-0.127 0.17,-0.105 0.194,-0.09C0.217,-0.074 0.244,-0.066 0.274,-0.066ZM0.424,-0.5L0.504,-0.5L0.504,-0L0.431,-0C0.431,-0 0.427,-0.044 0.426,-0.06C0.425,-0.076 0.424,-0.089 0.424,-0.1L0.424,-0.5Z" style="fill:rgb(45,45,45);fill-rule:nonzero;"/>
                        </g>
                        <g transform="matrix(63.852,0,0,63.852,1145.56,499.41)">
                            <path d="M0.065,-0.5L0.145,-0.5L0.145,-0L0.065,-0L0.065,-0.5ZM0.305,-0.425C0.271,-0.425 0.243,-0.417 0.22,-0.4C0.197,-0.383 0.179,-0.362 0.166,-0.338C0.153,-0.313 0.144,-0.29 0.14,-0.267L0.139,-0.325C0.139,-0.331 0.14,-0.341 0.143,-0.355C0.146,-0.369 0.151,-0.385 0.158,-0.403C0.165,-0.42 0.175,-0.437 0.188,-0.454C0.2,-0.47 0.216,-0.483 0.235,-0.494C0.254,-0.505 0.278,-0.51 0.305,-0.51L0.305,-0.425Z" style="fill:rgb(45,45,45);fill-rule:nonzero;"/>
                        </g>
                        <g transform="matrix(63.852,0,0,63.852,1166.63,499.41)">
                            <path d="M0.419,-0.161L0.494,-0.161C0.489,-0.128 0.477,-0.099 0.459,-0.074C0.44,-0.048 0.416,-0.028 0.387,-0.013C0.357,0.002 0.323,0.01 0.284,0.01C0.237,0.01 0.195,-0.001 0.158,-0.024C0.121,-0.046 0.091,-0.077 0.07,-0.116C0.048,-0.155 0.037,-0.199 0.037,-0.249C0.037,-0.299 0.048,-0.344 0.069,-0.383C0.09,-0.422 0.118,-0.453 0.155,-0.476C0.192,-0.499 0.233,-0.51 0.279,-0.51C0.328,-0.51 0.369,-0.499 0.403,-0.477C0.436,-0.456 0.461,-0.424 0.477,-0.383C0.494,-0.341 0.5,-0.29 0.497,-0.229L0.117,-0.229C0.12,-0.196 0.129,-0.168 0.144,-0.143C0.159,-0.118 0.178,-0.099 0.202,-0.086C0.226,-0.072 0.253,-0.065 0.284,-0.065C0.318,-0.065 0.347,-0.074 0.371,-0.092C0.394,-0.109 0.41,-0.132 0.419,-0.161ZM0.282,-0.435C0.241,-0.435 0.206,-0.423 0.178,-0.399C0.15,-0.375 0.131,-0.342 0.122,-0.301L0.415,-0.301C0.412,-0.345 0.398,-0.378 0.373,-0.401C0.347,-0.424 0.317,-0.435 0.282,-0.435Z" style="fill:rgb(45,45,45);fill-rule:nonzero;"/>
                        </g>
                        <g transform="matrix(63.852,0,0,63.852,1200.79,499.41)">
                            <path d="M0.041,-0.161L0.115,-0.161C0.117,-0.132 0.128,-0.109 0.148,-0.091C0.167,-0.073 0.196,-0.064 0.233,-0.064C0.256,-0.064 0.274,-0.067 0.286,-0.073C0.3,-0.079 0.309,-0.087 0.315,-0.098C0.321,-0.108 0.324,-0.119 0.324,-0.132C0.324,-0.147 0.32,-0.16 0.313,-0.169C0.305,-0.178 0.295,-0.185 0.281,-0.191C0.269,-0.197 0.254,-0.203 0.237,-0.208C0.218,-0.215 0.198,-0.223 0.178,-0.232C0.157,-0.24 0.138,-0.25 0.121,-0.262C0.103,-0.273 0.089,-0.288 0.078,-0.305C0.067,-0.322 0.062,-0.342 0.062,-0.366C0.062,-0.386 0.066,-0.405 0.074,-0.423C0.082,-0.44 0.094,-0.456 0.109,-0.469C0.124,-0.482 0.141,-0.492 0.162,-0.499C0.182,-0.506 0.204,-0.51 0.229,-0.51C0.262,-0.51 0.291,-0.503 0.314,-0.49C0.337,-0.477 0.354,-0.458 0.367,-0.434C0.379,-0.409 0.385,-0.381 0.386,-0.349L0.317,-0.349C0.312,-0.379 0.303,-0.401 0.289,-0.414C0.274,-0.428 0.254,-0.435 0.227,-0.435C0.2,-0.435 0.179,-0.429 0.164,-0.417C0.149,-0.405 0.142,-0.389 0.142,-0.369C0.142,-0.354 0.147,-0.342 0.158,-0.333C0.169,-0.323 0.183,-0.314 0.2,-0.307C0.217,-0.299 0.235,-0.291 0.254,-0.283C0.273,-0.275 0.292,-0.267 0.31,-0.259C0.328,-0.251 0.344,-0.242 0.358,-0.231C0.372,-0.22 0.383,-0.207 0.392,-0.192C0.4,-0.176 0.404,-0.156 0.404,-0.133C0.404,-0.105 0.398,-0.08 0.385,-0.059C0.372,-0.037 0.353,-0.02 0.328,-0.008C0.303,0.004 0.272,0.01 0.236,0.01C0.203,0.01 0.175,0.006 0.153,-0.003C0.13,-0.011 0.11,-0.022 0.095,-0.035C0.08,-0.049 0.068,-0.064 0.059,-0.079C0.051,-0.094 0.046,-0.109 0.043,-0.124C0.04,-0.139 0.04,-0.151 0.041,-0.161Z" style="fill:rgb(45,45,45);fill-rule:nonzero;"/>
                        </g>
                    </g>
                    <g id="family" transform="matrix(1,0,0,1,-2673.84,25.9554)">
                        <g transform="matrix(108,0,0,108,3229.68,583.504)">
                            <path d="M0.315,0.01C0.278,0.01 0.248,0.001 0.225,-0.016C0.202,-0.033 0.184,-0.055 0.171,-0.082C0.158,-0.109 0.148,-0.137 0.143,-0.167C0.138,-0.196 0.135,-0.224 0.135,-0.249C0.135,-0.285 0.138,-0.319 0.142,-0.35C0.148,-0.381 0.156,-0.409 0.169,-0.433C0.182,-0.457 0.2,-0.476 0.224,-0.49C0.247,-0.503 0.278,-0.51 0.315,-0.51C0.355,-0.51 0.391,-0.499 0.424,-0.476C0.457,-0.453 0.483,-0.422 0.502,-0.383C0.522,-0.344 0.532,-0.299 0.532,-0.249C0.532,-0.199 0.522,-0.155 0.502,-0.116C0.482,-0.077 0.456,-0.046 0.423,-0.024C0.39,-0.001 0.354,0.01 0.315,0.01ZM0.295,-0.066C0.326,-0.066 0.353,-0.074 0.377,-0.09C0.4,-0.105 0.419,-0.127 0.432,-0.155C0.445,-0.182 0.452,-0.214 0.452,-0.249C0.452,-0.302 0.438,-0.346 0.411,-0.382C0.384,-0.417 0.345,-0.434 0.295,-0.434C0.266,-0.434 0.24,-0.426 0.217,-0.41C0.194,-0.395 0.177,-0.373 0.164,-0.345C0.151,-0.318 0.145,-0.286 0.145,-0.249C0.145,-0.216 0.151,-0.185 0.162,-0.158C0.172,-0.13 0.189,-0.108 0.211,-0.091C0.233,-0.074 0.261,-0.066 0.295,-0.066ZM0.065,-0.5L0.142,-0.5L0.145,-0.395L0.145,0.2L0.065,0.2L0.065,-0.5Z" style="fill:rgb(45,45,45);fill-rule:nonzero;"/>
                        </g>
                        <g transform="matrix(108,0,0,108,3291.13,583.504)">
                            <path d="M0.282,0.01C0.239,0.01 0.199,-0 0.162,-0.021C0.125,-0.042 0.095,-0.071 0.071,-0.111C0.049,-0.15 0.037,-0.196 0.037,-0.249C0.037,-0.302 0.049,-0.348 0.071,-0.388C0.095,-0.427 0.125,-0.457 0.162,-0.478C0.199,-0.499 0.239,-0.51 0.282,-0.51C0.325,-0.51 0.365,-0.499 0.402,-0.478C0.439,-0.457 0.468,-0.427 0.491,-0.388C0.514,-0.348 0.525,-0.302 0.525,-0.249C0.525,-0.196 0.514,-0.15 0.491,-0.111C0.468,-0.071 0.439,-0.042 0.402,-0.021C0.365,-0 0.325,0.01 0.282,0.01ZM0.282,-0.065C0.31,-0.065 0.336,-0.072 0.361,-0.086C0.386,-0.1 0.406,-0.121 0.422,-0.149C0.437,-0.176 0.445,-0.21 0.445,-0.249C0.445,-0.288 0.437,-0.322 0.422,-0.349C0.406,-0.377 0.386,-0.398 0.361,-0.413C0.336,-0.428 0.31,-0.435 0.282,-0.435C0.254,-0.435 0.228,-0.428 0.203,-0.413C0.178,-0.399 0.157,-0.378 0.141,-0.35C0.125,-0.323 0.117,-0.289 0.117,-0.249C0.117,-0.21 0.125,-0.176 0.141,-0.149C0.156,-0.121 0.177,-0.1 0.202,-0.086C0.227,-0.072 0.254,-0.065 0.282,-0.065Z" style="fill:rgb(45,45,45);fill-rule:nonzero;"/>
                        </g>
                        <g transform="matrix(108,0,0,108,3351.82,583.504)">
                            <path d="M0.315,0.01C0.278,0.01 0.248,0.001 0.225,-0.016C0.202,-0.033 0.184,-0.055 0.171,-0.082C0.158,-0.109 0.148,-0.137 0.143,-0.167C0.138,-0.196 0.135,-0.224 0.135,-0.249C0.135,-0.285 0.138,-0.319 0.142,-0.35C0.148,-0.381 0.156,-0.409 0.169,-0.433C0.182,-0.457 0.2,-0.476 0.224,-0.49C0.247,-0.503 0.278,-0.51 0.315,-0.51C0.355,-0.51 0.391,-0.499 0.424,-0.476C0.457,-0.453 0.483,-0.422 0.502,-0.383C0.522,-0.344 0.532,-0.299 0.532,-0.249C0.532,-0.199 0.522,-0.155 0.502,-0.116C0.482,-0.077 0.456,-0.046 0.423,-0.024C0.39,-0.001 0.354,0.01 0.315,0.01ZM0.295,-0.066C0.326,-0.066 0.353,-0.074 0.377,-0.09C0.4,-0.105 0.419,-0.127 0.432,-0.155C0.445,-0.182 0.452,-0.214 0.452,-0.249C0.452,-0.302 0.438,-0.346 0.411,-0.382C0.384,-0.417 0.345,-0.434 0.295,-0.434C0.266,-0.434 0.24,-0.426 0.217,-0.41C0.194,-0.395 0.177,-0.373 0.164,-0.345C0.151,-0.318 0.145,-0.286 0.145,-0.249C0.145,-0.216 0.151,-0.185 0.162,-0.158C0.172,-0.13 0.189,-0.108 0.211,-0.091C0.233,-0.074 0.261,-0.066 0.295,-0.066ZM0.065,-0.5L0.142,-0.5L0.145,-0.395L0.145,0.2L0.065,0.2L0.065,-0.5Z" style="fill:rgb(45,45,45);fill-rule:nonzero;"/>
                        </g>
                        <g transform="matrix(108,0,0,108,3413.28,583.504)">
                            <path d="M0.254,0.01C0.215,0.01 0.179,-0.001 0.146,-0.024C0.113,-0.046 0.086,-0.077 0.067,-0.116C0.047,-0.155 0.037,-0.199 0.037,-0.249C0.037,-0.299 0.047,-0.344 0.067,-0.383C0.087,-0.422 0.114,-0.453 0.149,-0.476C0.183,-0.499 0.221,-0.51 0.264,-0.51C0.311,-0.51 0.346,-0.498 0.371,-0.474C0.395,-0.451 0.411,-0.419 0.421,-0.38C0.43,-0.341 0.434,-0.297 0.434,-0.249C0.434,-0.224 0.431,-0.196 0.426,-0.167C0.421,-0.137 0.411,-0.109 0.399,-0.082C0.386,-0.055 0.367,-0.033 0.344,-0.016C0.321,0.001 0.291,0.01 0.254,0.01ZM0.274,-0.066C0.308,-0.066 0.336,-0.074 0.359,-0.091C0.381,-0.108 0.397,-0.13 0.408,-0.158C0.419,-0.185 0.424,-0.216 0.424,-0.249C0.424,-0.286 0.419,-0.318 0.407,-0.345C0.397,-0.373 0.38,-0.395 0.358,-0.41C0.335,-0.426 0.307,-0.434 0.274,-0.434C0.224,-0.434 0.185,-0.417 0.158,-0.382C0.131,-0.346 0.117,-0.302 0.117,-0.249C0.117,-0.214 0.124,-0.182 0.138,-0.155C0.151,-0.127 0.17,-0.105 0.194,-0.09C0.217,-0.074 0.244,-0.066 0.274,-0.066ZM0.424,-0.5L0.504,-0.5L0.504,-0L0.431,-0C0.431,-0 0.427,-0.044 0.426,-0.06C0.425,-0.076 0.424,-0.089 0.424,-0.1L0.424,-0.5Z" style="fill:rgb(45,45,45);fill-rule:nonzero;"/>
                        </g>
                    </g>
                    <g id="dot" transform="matrix(1.35634,0,0,1.35634,-276.644,-313.921)">
                        <circle cx="605.463" cy="660.882" r="5.898" style="fill:rgb(7,42,200);"/>
                    </g>
                </g>
            </g>
        </g>
    </g>
</svg>
