<?xml version="1.0" standalone="no"?>
<!DOCTYPE svg PUBLIC "-//W3C//DTD SVG 20010904//EN"
 "http://www.w3.org/TR/2001/REC-SVG-20010904/DTD/svg10.dtd">
<svg version="1.0" xmlns="http://www.w3.org/2000/svg"
 width="700.000000pt" height="700.000000pt" viewBox="0 0 700.000000 700.000000"
 preserveAspectRatio="xMidYMid meet">
<metadata>
Created by potrace 1.14, written by Peter Selinger 2001-2017
</metadata>
<g transform="translate(0.000000,700.000000) scale(0.100000,-0.100000)"
fill="#000000" stroke="none">
<path d="M0 3500 l0 -3500 3500 0 3500 0 0 3500 0 3500 -3500 0 -3500 0 0
-3500z m4640 2167 c0 -1 -285 -198 -634 -437 -349 -239 -633 -436 -631 -438 1
-1 100 31 219 72 l217 75 38 -82 c21 -45 97 -209 170 -364 108 -229 130 -285
122 -301 -6 -11 -43 -73 -84 -138 -40 -66 -77 -126 -82 -134 -8 -14 39 27 156
138 l56 53 326 -656 c180 -361 327 -660 327 -665 0 -4 -73 -11 -162 -15 -90
-4 -208 -10 -263 -13 l-100 -7 265 -77 c220 -65 269 -82 291 -105 113 -119
790 -885 786 -890 -12 -11 -330 -105 -517 -152 -361 -91 -665 -143 -1075 -183
-204 -20 -896 -17 -1115 5 -374 38 -718 98 -1071 187 -205 53 -518 146 -532
159 -4 4 337 429 758 945 421 515 765 939 765 941 0 2 -107 -70 -237 -160
-130 -91 -238 -164 -240 -162 -1 2 80 264 182 583 196 612 518 1506 546 1512
66 15 1497 310 1507 311 6 1 12 0 12 -2z"/>
</g>
</svg>
